HIERARCHY
ROOT Hips
{
	OFFSET 0.00000 0.00000 0.00000
	CHANNELS 6 Xposition Yposition Zposition Yrotation Zrotation Xrotation 
	JOINT Lumbar
	{
		OFFSET 0 0 0
		CHANNELS 3 Zrotation Xrotation Yrotation
		JOINT Neck
		{
			OFFSET 0.00 0.2701 0.00
			CHANNELS 3 Zrotation Xrotation Yrotation
			End Site
			{
				OFFSET 0.00 0.1379 0.00
			}
		}
		JOINT RightShoulder
		{
			OFFSET 0.0119 0.2289 0.1181
			CHANNELS 3 Zrotation Xrotation Yrotation
			JOINT RightElbow
			{
				OFFSET 0.00 -0.1475 0.00
				CHANNELS 2 Zrotation Yrotation
				JOINT RightWrist
				{
					OFFSET 0.00 -0.1605 0.00
					CHANNELS 2 Zrotation Xrotation
					End Site
					{
						OFFSET 0.0040 -0.1068 0.0006
					}
				}
			}
		}
		JOINT LeftShoulder
		{
			OFFSET 0.0119 0.2289 -0.1181
			CHANNELS 3 Zrotation Xrotation Yrotation
			JOINT LeftElbow
			{
				OFFSET 0.00 -0.1475 0.00
				CHANNELS 2 Zrotation Yrotation
				JOINT LeftWrist
				{
					OFFSET 0.00 -0.1605 0.00
					CHANNELS 2 Zrotation Xrotation
					End Site
					{
						OFFSET 0.0040 -0.1068 -0.0006
					}
				}
			}
		}
	}
	JOINT RightHip
	{
		OFFSET 0.0316 -0.0424 0.0458
		CHANNELS 3 Zrotation Xrotation Yrotation
		JOINT RightKnee
		{
			OFFSET 0.00 -0.2438 0.00
			CHANNELS 1 Zrotation
			JOINT RightAnkle
			{
				OFFSET 0.00 -0.2449 0.00
				CHANNELS 3 Zrotation Xrotation Yrotation
				End Site
				{
					OFFSET 0.1237 -0.0542 0.0051
				}
			}
		}
	}
	JOINT LeftHip
	{
		OFFSET 0.0316 -0.0424 -0.0458
		CHANNELS 3 Zrotation Xrotation Yrotation
		JOINT LeftKnee
		{
			OFFSET 0.00 -0.2438 0.00
			CHANNELS 1 Zrotation
			JOINT LeftAnkle
			{
				OFFSET 0.00 -0.2449 0.00
				CHANNELS 3 Zrotation Xrotation Yrotation
				End Site
				{
					OFFSET 0.1237 -0.0542 -0.0051
				}
			}
		}
	}
}
MOTION
Frames: 33
Frame Time: 0.02
0.00136 0.00014 0.00139 31.15753 -23.9425 -10.05514 47.80955 2.225 -4.47736 -10.42736 3.6561 -0.28169 -22.26443 -9.25663 -1.25245 35.4737 89.71173 7.67037 0.01086 -28.30605 13.82757 -0.82726 43.28031 -97.07463 14.26148 -0.49627 36.07577 -1.63628 -9.5267 -21.25735 -8.20145 -3.5946 -4.06004 37.60756 12.15096 9.44504 -27.02734 -7.83213 3.06106 3.77866
0.00088 7e-05 0.00089 31.29045 -23.94764 -10.04519 47.7714 2.21019 -4.52117 -10.45234 3.67373 -0.2829 -22.31189 -9.33214 -1.37675 35.44671 89.7264 7.66691 0.01413 -28.18168 13.69714 -0.83295 43.21429 -96.99123 14.26938 -0.48406 36.05062 -1.77572 -9.71639 -21.25844 -8.2007 -3.58642 -4.0552 37.6449 11.92963 8.95921 -27.02439 -7.86066 3.09898 3.79901
0.0004 -0 0.00039 31.42315 -23.95278 -10.03532 47.7333 2.19536 -4.56484 -10.47735 3.69166 -0.28412 -22.35914 -9.40745 -1.50075 35.4196 89.74084 7.66335 0.01739 -28.05754 13.5675 -0.8398 43.14851 -96.90527 14.27584 -0.47132 36.02551 -1.91494 -9.90593 -21.25951 -8.19994 -3.57822 -4.05036 37.68215 11.70906 8.47577 -27.02147 -7.88901 3.13669 3.81925
-8e-05 -7e-05 -0.0001 31.5557 -23.95792 -10.02541 47.69527 2.18059 -4.60852 -10.50227 3.70927 -0.28533 -22.40647 -9.48273 -1.62468 35.39267 89.75542 7.65988 0.02066 -27.93353 13.43756 -0.84575 43.08269 -96.82147 14.28339 -0.45901 36.00043 -2.05399 -10.09513 -21.26059 -8.19919 -3.57005 -4.04553 37.71938 11.48843 7.99161 -27.01854 -7.91743 3.17447 3.83952
-0.00056 -0.00015 -0.00059 31.68839 -23.96306 -10.01541 47.65722 2.16586 -4.65234 -10.52715 3.72651 -0.28653 -22.45398 -9.5582 -1.74887 35.36591 89.77032 7.65656 0.02395 -27.80938 13.30661 -0.84987 43.01662 -96.74185 14.2932 -0.44755 35.97535 -2.19319 -10.28425 -21.2617 -8.19846 -3.56192 -4.04072 37.75671 11.26698 7.50466 -27.01558 -7.94606 3.2125 3.85993
-0.00105 -0.00022 -0.00109 31.82108 -23.96819 -10.00583 47.61901 2.15082 -4.69566 -10.55241 3.74593 -0.28777 -22.50066 -9.63317 -1.87246 35.33803 89.78381 7.65247 0.02713 -27.68527 13.17966 -0.86233 42.95145 -96.64293 14.29277 -0.43218 35.95017 -2.33245 -10.47465 -21.26269 -8.19764 -3.55358 -4.03583 37.79381 11.04825 7.02855 -27.01274 -7.97382 3.24952 3.87981
-0.00152 -0.00029 -0.00158 31.95367 -23.97333 -9.99539 47.58118 2.13645 -4.73999 -10.57685 3.76079 -0.28894 -22.54909 -9.70907 -1.99712 35.31255 89.80008 7.64993 0.03053 -27.56119 13.04503 -0.85863 42.88451 -96.58141 14.31217 -0.42439 35.92517 -2.47143 -10.6624 -21.26391 -8.19699 -3.54565 -4.03109 37.83128 10.82436 6.53139 -27.00966 -8.00329 3.28852 3.90072
-0.00201 -0.00036 -0.00208 32.08628 -23.97849 -9.98577 47.54297 2.12141 -4.78329 -10.60213 3.78015 -0.29017 -22.59567 -9.78409 -2.12081 35.28463 89.81385 7.64596 0.03374 -27.43711 12.9171 -0.86867 42.81926 -96.48818 14.31472 -0.41017 35.9001 -2.61065 -10.85236 -21.26493 -8.19621 -3.53737 -4.02622 37.86848 10.60511 6.05322 -27.00681 -8.03121 3.32574 3.9207
-0.00249 -0.00044 -0.00258 32.2193 -23.98356 -9.97706 47.50436 2.10571 -4.82574 -10.6281 3.80388 -0.29149 -22.64092 -9.85815 -2.24332 35.25458 89.82427 7.64023 0.03669 -27.31285 12.79886 -0.9003 42.75586 -96.34461 14.29072 -0.38577 35.87454 -2.75035 -11.04609 -21.26566 -8.19517 -3.52853 -4.02114 37.9051 10.39195 5.5999 -27.00419 -8.05711 3.3606 3.93945
-0.00295 -0.00051 -0.00305 32.3511 -23.9888 -9.96285 47.46826 2.09429 -4.87429 -10.64909 3.79908 -0.29233 -22.69665 -9.93811 -2.37266 35.23936 89.85309 7.64459 0.04105 -27.18905 12.6294 -0.82218 42.68116 -96.45583 14.40157 -0.41296 35.85057 -2.88786 -11.22135 -21.26792 -8.19529 -3.52254 -4.01714 37.94433 10.14498 5.00855 -27.00012 -8.09427 3.40849 3.96499
-0.00348 -0.00058 -0.00359 32.48471 -23.99389 -9.96042 47.42675 2.07353 -4.90922 -10.6812 3.85658 -0.29418 -22.72846 -10.00535 -2.48754 35.19123 89.84369 7.62771 0.04246 -27.06471 12.56506 -0.96624 42.63071 -96.0521 14.2395 -0.3358 35.82407 -3.02959 -11.43348 -21.26705 -8.1932 -3.51077 -4.01095 37.9785 9.96856 4.70515 -26.99917 -8.10792 3.42923 3.9764
-0.00418 -0.00066 -0.00431 32.62946 -23.99703 -9.98924 47.37093 2.02962 -4.91266 -10.73918 4.0692 -0.29881 -22.70793 -10.03951 -2.56341 35.06463 89.72644 7.5521 0.03631 -26.93542 12.8173 -1.80476 42.64398 -94.03065 13.22318 0.0684 35.78427 -3.1864 -11.76543 -21.25687 -8.18298 -3.48103 -3.99775 37.99496 9.99428 5.22735 -27.00638 -8.05444 3.37172 3.94719
-0.00497 -0.00075 -0.00511 32.77462 -24.00032 -10.0301 47.30943 1.9759 -4.90139 -10.80909 4.34711 -0.30444 -22.66025 -10.06035 -2.62508 34.90248 89.57346 7.45562 0.02769 -26.80633 13.17045 -2.85174 42.68204 -91.52722 11.95073 0.57038 35.7434 -3.3468 -12.13113 -21.24386 -8.17092 -3.44583 -3.98251 38.00711 10.08939 6.03254 -27.01678 -7.97783 3.28761 3.90413
-0.00573 -0.00084 -0.00587 32.91594 -24.00453 -10.06619 47.25037 1.92507 -4.89296 -10.87671 4.60574 -0.30961 -22.61717 -10.08636 -2.6923 34.74929 89.43613 7.36848 0.01906 -26.67929 13.45837 -3.74664 42.71069 -89.38159 10.86632 1.00036 35.70683 -3.50325 -12.469 -21.23238 -8.16105 -3.41453 -3.96888 38.02366 10.14703 6.68455 -27.02604 -7.91354 3.21814 3.86862
-0.00645 -0.00092 -0.00663 33.07383 -24.00449 -10.09938 47.1925 1.8808 -4.90055 -10.93153 4.82147 -0.31482 -22.60945 -10.11693 -2.76157 34.6277 89.29267 7.28033 0.01273 -26.54283 13.82599 -4.87969 42.73189 -86.6608 9.48555 1.5447 35.65298 -3.66948 -12.85897 -21.21915 -8.14548 -3.37739 -3.95242 38.02965 10.22936 7.43911 -27.0341 -7.84164 3.13794 3.82782
-0.00726 -0.00102 -0.00741 33.19587 -24.01345 -10.14141 47.13003 1.82057 -4.87153 -11.01535 5.14098 -0.32019 -22.51823 -10.13378 -2.82536 34.43023 89.16422 7.19133 0.00411 -26.4265 14.05437 -5.57159 42.77409 -85.00917 8.65307 1.87679 35.63634 -3.81621 -13.14933 -21.20978 -8.14133 -3.35093 -3.94129 38.05694 10.27737 8.04933 -27.04529 -7.78004 3.07367 3.79471
-0.00832 -0.00118 -0.00825 33.23054 -24.04638 -10.20535 47.06273 1.71867 -4.74301 -11.1802 5.73943 -0.32589 -22.23148 -10.12537 -2.85848 34.0458 88.99291 7.08754 -0.03681 -26.3616 13.84891 -4.94647 42.87075 -86.55604 9.46965 1.57449 35.71105 -3.90787 -13.14795 -21.20514 -8.16945 -3.35687 -3.94611 38.14133 10.20757 8.17193 -27.06525 -7.75333 3.06107 3.78676
-0.00947 -0.00137 -0.00909 33.2265 -24.08858 -10.27765 46.98971 1.60113 -4.57855 -11.37296 6.43811 -0.33176 -21.85575 -10.10194 -2.88969 33.58342 88.85422 6.98648 -0.07522 -26.31759 13.50451 -3.87921 42.98672 -89.17229 10.83361 1.05956 35.82606 -3.97977 -13.04648 -21.20638 -8.20913 -3.37348 -3.95623 38.24793 10.10197 8.14308 -27.08805 -7.73769 3.06526 3.78695
-0.01059 -0.00155 -0.00991 33.23304 -24.12702 -10.34585 46.91511 1.49067 -4.43189 -11.55052 7.08589 -0.33739 -21.50287 -10.0792 -2.93476 33.14794 88.76305 6.89625 -0.09706 -26.26687 13.23973 -3.04552 43.09282 -91.21431 11.89934 0.65811 35.92942 -4.06103 -12.99667 -21.20846 -8.24328 -3.38417 -3.96341 38.34604 10.01663 8.19647 -27.10898 -7.71644 3.06097 3.78306
-0.01166 -0.00173 -0.01083 33.27094 -24.16331 -10.41585 46.85818 1.37966 -4.27854 -11.7396 7.7601 -0.3435 -21.22569 -10.08163 -2.92622 32.74817 88.41203 6.75611 -0.19283 -26.20492 12.9085 -2.08073 43.20642 -93.60979 13.16422 0.18957 36.00192 -4.14109 -12.92299 -21.19294 -8.27831 -3.39915 -3.97272 38.43681 9.91668 8.20321 -27.1326 -7.69664 3.05916 3.78023
-0.01285 -0.00191 -0.01154 33.23215 -24.20658 -10.48381 46.76288 1.26663 -4.13078 -11.91056 8.40027 -0.34896 -20.76706 -10.02854 -3.02691 32.25479 88.6047 6.7186 -0.13517 -26.17067 12.68187 -1.28205 43.30614 -95.53213 14.14856 -0.1918 36.15165 -4.21856 -12.87353 -21.21883 -8.31455 -3.40783 -3.97892 38.54873 9.83798 8.26736 -27.15107 -7.67697 3.05672 3.77739
-0.01431 -0.00212 -0.01168 33.00965 -24.26413 -10.54487 46.56565 1.14828 -4.00717 -12.02954 8.93837 -0.34966 -19.85505 -9.82309 -3.44947 31.53213 90.33793 6.98322 0.35638 -26.21325 12.77359 -1.04268 43.3841 -95.86479 14.21786 -0.27387 36.47649 -4.29617 -12.92592 -21.32998 -8.34911 -3.39636 -3.9751 38.70881 9.82439 8.52583 -27.15598 -7.65339 3.04688 3.77173
-0.01589 -0.00234 -0.01161 32.70782 -24.32878 -10.6033 46.32957 1.02913 -3.89037 -12.12817 9.4355 -0.35019 -18.75903 -9.56267 -3.97908 30.7163 92.60669 7.34752 1.00045 -26.28185 12.97584 -0.98618 43.44333 -95.69117 13.98865 -0.26259 36.88315 -4.37109 -13.00373 -21.4883 -8.38498 -3.37831 -3.96807 38.89012 9.83343 8.8457 -27.15533 -7.63001 3.0363 3.76601
-0.01742 -0.00255 -0.01162 32.43012 -24.3921 -10.66249 46.10953 0.91277 -3.77081 -12.23307 9.9401 -0.35279 -17.73009 -9.32949 -4.44591 29.93654 94.60186 7.65357 1.56738 -26.33515 13.12977 -0.84971 43.49704 -95.76546 13.90139 -0.29888 37.27072 -4.44599 -13.06317 -21.64249 -8.4216 -3.36328 -3.96255 39.06516 9.83335 9.13735 -27.1563 -7.60765 3.02718 3.76087
-0.01892 -0.00277 -0.01171 32.20142 -24.44818 -10.72417 45.89599 0.78572 -3.64924 -12.35225 10.49472 -0.34723 -16.76691 -9.08694 -4.96954 29.18019 96.73342 8.01435 2.16663 -26.40437 13.27034 -0.6843 43.61063 -95.80009 13.80567 -0.32085 37.58259 -4.52663 -13.14901 -21.72167 -8.45263 -3.34816 -3.95677 39.22756 9.82744 9.4269 -27.16118 -7.58086 3.01374 3.75357
-0.0205 -0.00297 -0.01159 31.85228 -24.52033 -10.77947 45.65993 0.68081 -3.53312 -12.43556 10.93483 -0.35832 -15.62545 -8.85015 -5.40379 28.35437 98.69798 8.28481 2.73575 -26.44569 13.46742 -0.62884 43.59484 -95.78498 13.65064 -0.34768 38.07191 -4.59344 -13.18583 -21.97091 -8.49585 -3.33197 -3.95097 39.41998 9.83916 9.73524 -27.15657 -7.56335 3.00909 3.75077
-0.02229 -0.0031 -0.011 31.19112 -24.63979 -10.82156 45.37057 0.63874 -3.43779 -12.43262 11.06213 -0.4181 -14.02732 -8.65058 -5.53863 27.35655 100.1597 8.28163 3.17523 -26.40936 13.78898 -0.82994 43.22695 -95.73681 13.39382 -0.41032 39.02132 -4.6351 -13.09416 -22.653 -8.56914 -3.31053 -3.94377 39.69798 9.89753 10.10053 -27.1271 -7.56991 3.02717 3.75931
-0.02413 -0.00321 -0.01022 30.41198 -24.77402 -10.85653 45.06058 0.61885 -3.34662 -12.39278 11.07645 -0.49415 -12.259 -8.45725 -5.58702 26.29302 101.42271 8.18441 3.58028 -26.3432 14.16525 -1.13796 42.73004 -95.65446 13.08718 -0.48011 40.14649 -4.66043 -12.95101 -23.50768 -8.65518 -3.28898 -3.93707 40.00318 9.97271 10.48082 -27.0883 -7.58592 3.05425 3.77248
-0.02592 -0.00332 -0.00951 29.68563 -24.89867 -10.89232 44.75981 0.58786 -3.24877 -12.36447 11.14617 -0.56099 -10.57438 -8.25605 -5.68946 25.26191 102.71202 8.1297 4.00776 -26.28642 14.52002 -1.40084 42.29077 -95.5951 12.80761 -0.54587 41.19953 -4.68556 -12.82248 -24.30191 -8.7375 -3.26992 -3.9315 40.2915 10.03766 10.84025 -27.05371 -7.59867 3.07841 3.78429
-0.02783 -0.00344 -0.00885 28.95782 -25.03662 -10.93842 44.45613 0.56092 -3.17093 -12.35725 11.19688 -0.63546 -8.85371 -8.07444 -5.72408 24.21658 104.27104 8.07805 4.41414 -26.24688 14.86395 -1.6555 41.85202 -95.48685 12.49837 -0.61182 42.22947 -4.7439 -12.72906 -25.02848 -8.81123 -3.24012 -3.91997 40.60245 10.11301 11.25594 -27.01888 -7.60754 3.09811 3.79323
-0.0295 -0.00355 -0.00805 28.20879 -25.14909 -10.96111 44.15689 0.53112 -3.05283 -12.29804 11.26154 -0.69792 -7.17357 -7.85391 -5.88965 23.18665 105.23822 7.99814 4.85154 -26.16566 15.24255 -1.95003 41.38559 -95.47929 12.24404 -0.68025 43.33978 -4.7278 -12.55346 -25.92803 -8.9057 -3.23304 -3.92117 40.86895 10.17203 11.5636 -26.98261 -7.62616 3.12861 3.80889
-0.03065 -0.00365 -0.00687 27.40739 -25.19774 -10.92316 43.85191 0.48528 -2.81822 -12.10068 11.38665 -0.72314 -5.61928 -7.52805 -6.3345 22.21624 104.40259 7.84728 5.40549 -25.96223 15.69873 -2.3307 40.8425 -95.75347 12.14433 -0.75388 44.69948 -4.52314 -12.13488 -27.33368 -9.05521 -3.28601 -3.95606 41.03562 10.16715 11.5113 -26.94305 -7.67453 3.19229 3.84531
-0.03154 -0.00373 -0.00558 26.5936 -25.21824 -10.86139 43.55691 0.43629 -2.54366 -11.85322 11.53094 -0.73572 -4.11838 -7.1629 -6.9303 21.26512 103.01066 7.6734 5.98668 -25.7204 16.18833 -2.74624 40.2826 -96.13264 12.10442 -0.83008 46.11969 -4.24226 -11.64155 -28.89359 -9.22461 -3.36224 -4.00392 41.15089 10.14739 11.35794 -26.90266 -7.7316 3.26565 3.88782
